<svg width="32" height="40" viewBox="0 0 32 40" fill="none" xmlns="http://www.w3.org/2000/svg">
<path d="M0.857143 15H31.1429C31.6143 15 32 15.4219 32 15.9375V36.25C32 38.3203 30.4643 40 28.5714 40H3.42857C1.53571 40 0 38.3203 0 36.25V15.9375C0 15.4219 0.385714 15 0.857143 15ZM32 11.5625V8.75C32 6.67969 30.4643 5 28.5714 5H25.1429V0.9375C25.1429 0.421875 24.7571 0 24.2857 0H21.4286C20.9571 0 20.5714 0.421875 20.5714 0.9375V5H11.4286V0.9375C11.4286 0.421875 11.0429 0 10.5714 0H7.71429C7.24286 0 6.85714 0.421875 6.85714 0.9375V5H3.42857C1.53571 5 0 6.67969 0 8.75V11.5625C0 12.0781 0.385714 12.5 0.857143 12.5H31.1429C31.6143 12.5 32 12.0781 32 11.5625Z" fill="#1F4673"/>
</svg>
