<svg width="42" height="42" viewBox="0 0 42 42" fill="none" xmlns="http://www.w3.org/2000/svg">
<path d="M36.8125 42H5.1875C2.80664 42 0.875 39.9844 0.875 37.5V4.5C0.875 2.01562 2.80664 0 5.1875 0H36.8125C39.1934 0 41.125 2.01562 41.125 4.5V37.5C41.125 39.9844 39.1934 42 36.8125 42ZM22.2668 13.6781L10.075 26.4L9.50898 31.7531C9.43711 32.4656 10.0121 33.075 10.7039 33L15.834 32.4094L28.0258 19.6875C28.2324 19.4719 28.2324 19.1156 28.0258 18.8906L23.0395 13.6875C22.8148 13.4625 22.4734 13.4625 22.2668 13.6781ZM31.8711 12.4781L29.1668 9.65625C28.3223 8.775 26.9566 8.775 26.1211 9.65625L24.0457 11.8219C23.8391 12.0375 23.8391 12.3938 24.0457 12.6188L29.032 17.8219C29.2387 18.0375 29.5801 18.0375 29.7957 17.8219L31.8711 15.6562C32.7066 14.7844 32.7066 13.3594 31.8711 12.4781Z" fill="#1F4673"/>
</svg>
