<svg width="33" height="38" viewBox="0 0 33 38" fill="none" xmlns="http://www.w3.org/2000/svg">
<path d="M33 26.7188V1.78125C33 0.794141 32.2118 0 31.2321 0H7.07143C3.16741 0 0 3.19141 0 7.125V30.875C0 34.8086 3.16741 38 7.07143 38H31.2321C32.2118 38 33 37.2059 33 36.2188V35.0312C33 34.4746 32.7422 33.9699 32.3444 33.6434C32.035 32.5004 32.035 29.2422 32.3444 28.0992C32.7422 27.7801 33 27.2754 33 26.7188ZM9.42857 9.94531C9.42857 9.70039 9.62746 9.5 9.87054 9.5H25.4866C25.7297 9.5 25.9286 9.70039 25.9286 9.94531V11.4297C25.9286 11.6746 25.7297 11.875 25.4866 11.875H9.87054C9.62746 11.875 9.42857 11.6746 9.42857 11.4297V9.94531ZM9.42857 14.6953C9.42857 14.4504 9.62746 14.25 9.87054 14.25H25.4866C25.7297 14.25 25.9286 14.4504 25.9286 14.6953V16.1797C25.9286 16.4246 25.7297 16.625 25.4866 16.625H9.87054C9.62746 16.625 9.42857 16.4246 9.42857 16.1797V14.6953ZM28.0942 33.25H7.07143C5.76763 33.25 4.71429 32.1887 4.71429 30.875C4.71429 29.5688 5.775 28.5 7.07143 28.5H28.0942C27.9542 29.7691 27.9542 31.9809 28.0942 33.25Z" fill="#1F4673"/>
</svg>
