<svg width="39" height="44" viewBox="0 0 39 44" fill="none" xmlns="http://www.w3.org/2000/svg">
<path d="M39 30.8V2.2C39 0.825 38.1643 0 36.7714 0H8.35714C3.62143 0 0 3.575 0 8.25V35.75C0 40.425 3.62143 44 8.35714 44H36.7714C37.8857 44 39 43.175 39 41.8V40.425C39 39.875 38.7214 39.325 38.1643 38.775C37.8857 37.4 37.8857 33.55 38.1643 32.45C38.7214 32.175 39 31.625 39 30.8ZM12.5357 14.4375C12.5357 14.2552 12.6091 14.0803 12.7397 13.9514C12.8703 13.8224 13.0474 13.75 13.2321 13.75H18.1071V8.9375C18.1071 8.75516 18.1805 8.5803 18.3111 8.45136C18.4417 8.32243 18.6189 8.25 18.8036 8.25H22.9821C23.1668 8.25 23.344 8.32243 23.4746 8.45136C23.6052 8.5803 23.6786 8.75516 23.6786 8.9375V13.75H28.5536C28.7383 13.75 28.9154 13.8224 29.046 13.9514C29.1766 14.0803 29.25 14.2552 29.25 14.4375V18.5625C29.25 18.7448 29.1766 18.9197 29.046 19.0486C28.9154 19.1776 28.7383 19.25 28.5536 19.25H23.6786V24.0625C23.6786 24.2448 23.6052 24.4197 23.4746 24.5486C23.344 24.6776 23.1668 24.75 22.9821 24.75H18.8036C18.6189 24.75 18.4417 24.6776 18.3111 24.5486C18.1805 24.4197 18.1071 24.2448 18.1071 24.0625V19.25H13.2321C13.0474 19.25 12.8703 19.1776 12.7397 19.0486C12.6091 18.9197 12.5357 18.7448 12.5357 18.5625V14.4375ZM33.15 38.5H8.35714C6.68571 38.5 5.57143 37.4 5.57143 35.75C5.57143 34.1 6.96429 33 8.35714 33H33.15V38.5Z" fill="#1F4673"/>
</svg>
