<svg width="38" height="38" viewBox="0 0 38 38" fill="none" xmlns="http://www.w3.org/2000/svg">
<path d="M4.75 37C4.10987 37 3.375 36.3644 3.375 35.2857V11.8571H34.625V35.2857C34.625 36.3644 33.8901 37 33.25 37H4.75ZM15.1406 15.2857C13.9772 15.2857 13.25 16.3211 13.25 17.3036V17.9821C13.25 18.9646 13.9772 20 15.1406 20H22.8594C24.0228 20 24.75 18.9646 24.75 17.9821V17.3036C24.75 16.3211 24.0228 15.2857 22.8594 15.2857H15.1406ZM2.375 1H35.625C36.2651 1 37 1.63563 37 2.71429V6.78571C37 6.92173 36.951 7.02575 36.8986 7.08569C36.8474 7.14415 36.8137 7.14286 36.8125 7.14286H1.1875L1.18742 7.14286C1.18528 7.14288 1.15178 7.14327 1.1014 7.08569C1.04895 7.02575 1 6.92173 1 6.78571V2.71429C1 1.63563 1.73487 1 2.375 1Z" fill="#1F4673" stroke="white" stroke-width="2"/>
</svg>
