<svg width="44" height="38" viewBox="0 0 44 38" fill="none" xmlns="http://www.w3.org/2000/svg">
<path d="M41.4203 0.0046063C37.2341 0.2684 28.9137 1.22857 23.7772 4.71981C23.4228 4.9607 23.2219 5.38904 23.2219 5.8369V36.7007C23.2219 37.6804 24.1867 38.2996 25.0002 37.845C30.2849 34.8915 37.9277 34.0857 41.7068 33.8652C42.997 33.7897 44 32.6412 44 31.2645V2.60861C44.0008 1.10643 42.8274 -0.0836076 41.4203 0.0046063ZM20.2228 4.71981C15.0871 1.22857 6.76664 0.269248 2.58046 0.0046063C1.17335 -0.0836076 0 1.10643 0 2.60861V31.2654C0 32.6429 1.003 33.7914 2.29323 33.866C6.07379 34.0865 13.7204 34.8932 19.0051 37.8484C19.8164 38.3021 20.7781 37.6838 20.7781 36.7067V5.82163C20.7781 5.37293 20.578 4.96155 20.2228 4.71981Z" fill="#1F4673"/>
</svg>
