<svg xmlns="http://www.w3.org/2000/svg" xmlns:xlink="http://www.w3.org/1999/xlink" version="1.1" width="106.30822131916224" height="120" viewBox="0 0 2834.2114110645484 3199.3355481727576">
			
			<g transform="scale(9.966777408637874) translate(10, 10)">
				<defs id="SvgjsDefs1917"></defs><g id="SvgjsG1918" featurekey="rootContainer" transform="matrix(1,0,0,1,0,0)" fill="#fff"><path xmlns="http://www.w3.org/2000/svg" fill-rule="evenodd" d="M5,65 L132,0 L259, 65 L132, 10 z M5,221 L132,301 L259,216 L132, 291 z"></path></g><g id="SvgjsG1919" featurekey="symbolFeature-0" transform="matrix(0.8999999046325785,0,0,0.8999999046325785,87.20000019073484,77.4000030517575)" fill="#fff"><path xmlns="http://www.w3.org/2000/svg" d="M2,69.7L2,69.7c0.1,2.7,2.3,4.8,5,4.8h25.2c0,1.1-0.7,6.2-8.2,7.1h0.2c-1.2,0-2.2,1-2.2,2.2c0,1.2,1,2.2,2.2,2.2H52v-5.9  c0-0.2,0-0.4,0-0.6c-2.3-1.8-2.5-4.2-2.6-5h4.6c0.3-0.4,0.6-0.7,1-1c4-3.3,8.2-5.8,10.8-7.2v-3.9H7.6c-0.5,0-1-0.4-1-1V19.7  c0-0.5,0.4-1,1-1H74c0.5,0,1,0.4,1,1v16.9c0.4,0,0.9-0.1,1.3-0.1h0.9h0.9c0.5,0,1,0,1.5,0.1v-17c0-3.1-2.5-5.6-5.6-5.6H7.6  c-3.1,0-5.6,2.5-5.6,5.6v41.7c0,0,0,0,0,0.1V69c0,0,0,0.1,0,0.1v0.4c0,0,0,0.1,0,0.1V69.7z M40.8,66.1c1.5,0,2.8,1.2,2.8,2.8  s-1.2,2.8-2.8,2.8c-1.5,0-2.8-1.2-2.8-2.8S39.3,66.1,40.8,66.1z M78.1,41c4.3,0,7.7,3.5,7.7,7.7v8.6c0,1.3-0.7,2.5-1.7,3.2v8.3  c0,0.1,0.1,0.3,0.2,0.3c1.2,0.6,6.9,3.5,12.2,7.8c1,0.8,1.5,2,1.5,3.2v5.9H80l-1.8-8.2c3.6-5-0.3-5.3-0.9-5.3h0h0  c-0.7,0-4.6,0.2-0.9,5.3l-1.8,8.2H56.4v-5.9c0-1.2,0.6-2.4,1.5-3.2c5.3-4.4,11-7.2,12.2-7.8c0.1-0.1,0.2-0.2,0.2-0.3v-8.3  c-1-0.7-1.7-1.9-1.7-3.2v-8.6c0-4.3,3.5-7.7,7.7-7.7h0.9H78.1z"></path></g><g id="SvgjsG1920" featurekey="nameLeftFeature-0" transform="matrix(2.5714285714285716,0,0,2.5714285714285716,-3.0857144083295553,159.57142857142856)" fill="#fff"><path d="M1.78 6 l0 14 l-0.58 0 l0 -14 l0.58 0 z M12.82 6 l0 0.58 l-4.22 0 l0 13.42 l-0.58 0 l0 -13.42 l-4.24 0 l0 -0.58 l9.04 0 z"></path></g><g id="SvgjsG1921" featurekey="nameRightFeature-0" transform="matrix(2.475928317277849,0,0,2.475928317277849,32.173316587845335,160.73865704824306)" fill="#fff"><path d="M10.120000000000001 6 l0 14 l-2.92 0 l0 -14 l2.92 0 z M21.68 6 l2.92 0 l0 14 l-2.22 0 l-6.94 -8.68 l0 8.68 l-2.92 0 l0 -14 l2.26 0 l6.9 8.7 l0 -8.7 z M31.580000000000002 5.76 c2.46 0 4.02 1.54 4.76 2.9 l-2.16 1.28 c-0.76 -1.06 -1.5 -1.6 -2.6 -1.6 c-0.98 0 -1.7 0.58 -1.7 1.38 s0.46 1.22 1.56 1.62 l0.96 0.34 c3.1 1.1 4.32 2.48 4.32 4.4 c0 2.82 -2.68 4.22 -5.06 4.22 c-2.52 0 -4.48 -1.5 -5.16 -3.46 l2.24 -1.18 c0.5 1.02 1.34 2 2.92 2 c1.14 0 2.02 -0.5 2.02 -1.54 c0 -1 -0.6 -1.44 -2.12 -2.02 l-0.86 -0.3 c-2.06 -0.74 -3.72 -1.76 -3.72 -4.2 c0 -2.24 2.1 -3.84 4.6 -3.84 z M41.54 6 l0 14 l-2.92 0 l0 -14 l2.92 0 z M57.120000000000005 12.559999999999999 c0.62 4.7 -2.44 7.64 -6.22 7.64 c-3.98 0 -7.26 -2.94 -7.26 -7.2 s3.36 -7.2 7.26 -7.2 c1.86 0 3.5 0.6 4.7 1.66 l-1.76 1.98 c-0.74 -0.52 -1.74 -0.9 -2.76 -0.9 c-2.54 0 -4.4 1.86 -4.4 4.46 s1.8 4.46 4.22 4.46 c1.84 0 3.12 -0.66 3.52 -2.42 l-3.3 0 l0 -2.48 l6 0 z M67.84 6 l2.92 0 l0 14 l-2.92 0 l0 -5.66 l-5.64 0 l0 5.66 l-2.92 0 l0 -14 l2.92 0 l0 5.66 l5.64 0 l0 -5.66 z M82.66 6 l0 2.68 l-3.48 0 l0 11.32 l-2.92 0 l0 -11.32 l-3.5 0 l0 -2.68 l9.9 0 z M88.64 5.76 c2.46 0 4.02 1.54 4.76 2.9 l-2.16 1.28 c-0.76 -1.06 -1.5 -1.6 -2.6 -1.6 c-0.98 0 -1.7 0.58 -1.7 1.38 s0.46 1.22 1.56 1.62 l0.96 0.34 c3.1 1.1 4.32 2.48 4.32 4.4 c0 2.82 -2.68 4.22 -5.06 4.22 c-2.52 0 -4.48 -1.5 -5.16 -3.46 l2.24 -1.18 c0.5 1.02 1.34 2 2.92 2 c1.14 0 2.02 -0.5 2.02 -1.54 c0 -1 -0.6 -1.44 -2.12 -2.02 l-0.86 -0.3 c-2.06 -0.74 -3.72 -1.76 -3.72 -4.2 c0 -2.24 2.1 -3.84 4.6 -3.84 z"></path></g>
			</g>
		</svg>